<svg width="240" height="240" viewBox="0 0 240 240" fill="none" xmlns="http://www.w3.org/2000/svg">
<path d="M25.8 190.1L25.6 190.3C22.9 184.4 21.2 177.7 20.5 170.3C21.2 177.6 23.1 184.2 25.8 190.1Z" fill="white"/>
<path d="M90 103.8C103.144 103.8 113.8 93.1443 113.8 80C113.8 66.8556 103.144 56.2 90 56.2C76.8556 56.2 66.2 66.8556 66.2 80C66.2 93.1443 76.8556 103.8 90 103.8Z" fill="white"/>
<path d="M161.9 20H78.1C41.7 20 20 41.7 20 78.1V161.9C20 172.8 21.9 182.3 25.6 190.3C34.2 209.3 52.6 220 78.1 220H161.9C198.3 220 220 198.3 220 161.9V139V78.1C220 41.7 198.3 20 161.9 20ZM203.7 125C195.9 118.3 183.3 118.3 175.5 125L133.9 160.7C126.1 167.4 113.5 167.4 105.7 160.7L102.3 157.9C95.2 151.7 83.9 151.1 75.9 156.5L38.5 181.6C36.3 176 35 169.5 35 161.9V78.1C35 49.9 49.9 35 78.1 35H161.9C190.1 35 205 49.9 205 78.1V126.1L203.7 125Z" fill="white"/>
</svg>
